<mxfile host="app.diagrams.net" modified="2020-05-29T02:54:11.455Z" agent="5.0 (Macintosh; Intel Mac OS X 10_13_6) AppleWebKit/537.36 (KHTML, like Gecko) Chrome/83.0.4103.61 Safari/537.36 Edg/83.0.478.37" etag="z5Xj8SyanJEou06ndXfy" version="13.1.1" type="github">
  <diagram id="Wmi0Aczo4TX7lCzF5_Ux" name="第 1 页">
    <mxGraphModel dx="1208" dy="1163" grid="1" gridSize="10" guides="1" tooltips="1" connect="1" arrows="1" fold="1" page="1" pageScale="1" pageWidth="827" pageHeight="1169" math="0" shadow="0">
      <root>
        <mxCell id="0" />
        <mxCell id="1" parent="0" />
        <mxCell id="zSYfAOfOFXAkye_TDumf-2" value="字符串处理" style="shape=process;whiteSpace=wrap;html=1;backgroundOutline=1;" vertex="1" parent="1">
          <mxGeometry x="180" y="620" width="120" height="60" as="geometry" />
        </mxCell>
        <mxCell id="zSYfAOfOFXAkye_TDumf-5" style="edgeStyle=orthogonalEdgeStyle;rounded=0;orthogonalLoop=1;jettySize=auto;html=1;entryX=0.5;entryY=1;entryDx=0;entryDy=0;" edge="1" parent="1" source="zSYfAOfOFXAkye_TDumf-4" target="zSYfAOfOFXAkye_TDumf-2">
          <mxGeometry relative="1" as="geometry" />
        </mxCell>
        <mxCell id="zSYfAOfOFXAkye_TDumf-4" value="数组处理" style="shape=process;whiteSpace=wrap;html=1;backgroundOutline=1;" vertex="1" parent="1">
          <mxGeometry x="70" y="760" width="120" height="60" as="geometry" />
        </mxCell>
        <mxCell id="zSYfAOfOFXAkye_TDumf-6" value="日志打印" style="shape=process;whiteSpace=wrap;html=1;backgroundOutline=1;" vertex="1" parent="1">
          <mxGeometry x="340" y="620" width="120" height="60" as="geometry" />
        </mxCell>
        <mxCell id="zSYfAOfOFXAkye_TDumf-7" value="流程执行" style="shape=process;whiteSpace=wrap;html=1;backgroundOutline=1;" vertex="1" parent="1">
          <mxGeometry x="510" y="620" width="120" height="60" as="geometry" />
        </mxCell>
      </root>
    </mxGraphModel>
  </diagram>
</mxfile>
